<?xml version="1.0" encoding="UTF-8" standalone="no"?>
<!DOCTYPE svg PUBLIC "-//W3C//DTD SVG 20010904//EN"
"http://www.w3.org/TR/2001/REC-SVG-20010904/DTD/svg10.dtd">
<!-- Created with Sodipodi ("http://www.sodipodi.com/") -->
<svg
   xmlns="http://www.w3.org/2000/svg"
   xmlns:odm="http://product.corel.com/CGS/11/cddns/"
   xml:space="preserve"
   width="288pt"
   height="670pt"
   style="shape-rendering:geometricPrecision; text-rendering:geometricPrecision; image-rendering:optimizeQuality; fill-rule:evenodd"
   viewBox="0 0 8268 11692"
   xmlns:sodipodi="http://sodipodi.sourceforge.net/DTD/sodipodi-0.dtd"
   xmlns:xlink="http://www.w3.org/1999/xlink"
   id="svg752"
   sodipodi:version="0.34"
   sodipodi:docname="D:\Dokumenty\Wikipedie\images\svg\ASL\Sign language_V.svg"><sodipodi:namedview
   id="base" /><defs
   id="defs753"><style
   type="text/css"
   id="style754"><![CDATA[
    .fil0 {fill:#1F1A17}
   ]]></style></defs><g
   id="Layer 1"
   transform="matrix(2.074582,0,0,2.068568,-4231.752,-5643.117)"><path
   class="fil0"
   d="M4025 981c84,-18 165,0 243,56 79,55 132,150 160,284 28,135 42,313 42,535 0,158 -14,394 -42,708 -28,315 -42,556 -42,723 10,46 14,115 14,208 0,83 -4,176 -14,278 -9,102 -13,157 -13,166 0,84 13,167 41,250 19,19 53,28 104,28 51,0 86,0 105,0 37,-55 71,-157 104,-305 32,-148 92,-359 180,-632 88,-273 160,-544 216,-813 55,-268 83,-509 83,-722 37,-120 139,-181 305,-181 56,0 123,14 202,42 79,28 139,90 180,188 42,97 63,224 63,382 -9,129 -14,226 -14,291 -56,380 -83,759 -83,1139 -121,259 -202,560 -243,903 -42,342 -63,713 -63,1111l0 292c46,37 88,108 125,215 37,106 70,183 97,229 -74,528 -136,898 -187,1111 -51,213 -165,417 -340,611 -121,574 -241,1144 -362,1709 -138,92 -261,166 -368,222 -106,55 -224,97 -354,125l-166 0c-204,0 -375,-26 -514,-77 -139,-50 -417,-192 -834,-423 -18,-74 -2,-181 49,-320 51,-138 76,-222 76,-250 65,-120 98,-236 98,-347 0,-139 -93,-375 -278,-708 -185,-333 -283,-533 -292,-597 0,-167 -32,-403 -97,-709 -65,-305 -97,-546 -97,-722l0 -194c46,-84 164,-204 354,-361 190,-158 303,-322 340,-494 37,-171 70,-337 97,-500 28,-162 116,-280 264,-354 195,-18 292,-125 292,-319 -28,-204 -42,-357 -42,-458 0,-37 9,-93 28,-167 74,-648 153,-1296 236,-1945 46,-46 100,-90 160,-132 60,-41 123,-67 187,-76zm14 97c-120,28 -206,84 -257,167 -51,83 -76,185 -76,306 18,194 28,338 28,430 0,83 -14,167 -42,250l597 0 70 -417c-19,-138 -37,-282 -56,-430 -46,-167 -134,-269 -264,-306zm1292 653c-46,93 -70,222 -70,389 10,213 14,361 14,444 84,0 167,14 250,42 84,28 167,51 250,70 19,-93 28,-223 28,-389l0 -375c0,-74 -28,-130 -83,-167 -56,-37 -121,-56 -195,-56 -74,0 -139,14 -194,42zm-1042 681c-37,-74 -102,-111 -194,-111 -158,27 -273,41 -347,41 -84,74 -132,211 -146,410 -14,199 -30,326 -49,382 28,9 97,9 208,0 112,-9 227,-19 348,-28 46,0 106,9 180,28 19,-111 28,-195 28,-250 -19,-195 -28,-352 -28,-472zm1000 250c-83,83 -148,227 -194,430 -47,204 -79,329 -97,375 120,19 240,33 361,42 139,28 227,88 264,180 -56,37 -130,40 -223,7 -92,-32 -162,-71 -208,-118 -139,0 -234,19 -285,56 -51,37 -76,157 -76,361l0 153c83,0 194,48 333,146 139,97 241,150 306,159 83,-259 150,-527 201,-805 51,-278 77,-547 77,-806 -65,0 -139,-32 -223,-97 -83,-65 -162,-93 -236,-83zm-1208 527l-167 -13 167 13zm-500 84c-28,83 -42,166 -42,250 0,102 9,187 28,257 19,69 32,122 42,159 55,-9 106,17 152,77 47,60 93,113 139,160 111,-28 223,-61 334,-98 -10,-83 -10,-203 0,-361 9,-157 14,-241 14,-250 0,-92 -5,-157 -14,-194 -74,0 -148,2 -223,7 -74,4 -148,7 -222,7 -92,0 -162,-5 -208,-14zm-278 833c-74,37 -136,97 -187,181 -51,83 -63,171 -35,264l-97 -56 0 83c83,158 194,324 333,500 139,176 229,292 271,348 42,55 97,201 167,437 69,236 168,382 298,438 -37,-121 -72,-223 -104,-306 -32,-83 -81,-153 -146,-208 -120,-167 -180,-366 -180,-598 0,-83 9,-152 27,-208 19,-55 77,-132 174,-229 97,-97 123,-183 76,-257 -55,-111 -118,-211 -187,-299 -70,-88 -151,-132 -243,-132 -56,0 -111,14 -167,42zm917 83l-42 -13 42 13zm361 153c-204,-9 -357,-14 -458,-14l-125 0c0,139 76,260 229,361 153,102 298,200 437,292l722 14c28,-56 42,-106 42,-153 0,-83 -30,-157 -90,-222 -60,-65 -151,-134 -271,-208 -120,-74 -227,-111 -319,-111 -56,0 -112,13 -167,41zm-1611 431c-37,83 -65,150 -84,201 -18,51 -18,95 0,132l195 -83c-37,-37 -70,-79 -97,-125 -28,-47 -33,-88 -14,-125zm889 69c-56,28 -88,79 -98,153 -9,74 -13,139 -13,194 0,-46 18,-111 55,-194 37,-83 56,-134 56,-153zm180 0c-102,65 -153,172 -153,320 0,46 10,106 28,180 102,56 199,70 292,42 -9,-56 2,-120 35,-195 32,-74 62,-148 90,-222 -130,-92 -227,-134 -292,-125zm959 181c-65,9 -130,18 -195,28 130,37 243,94 340,173 98,79 179,178 243,299l0 -167c56,-120 31,-187 -76,-201 -106,-14 -211,-30 -312,-49l0 -83zm-264 139c-47,-37 -93,-56 -139,-56 -65,0 -118,65 -160,195 -42,129 -86,203 -132,222 -130,0 -227,-7 -292,-21 -64,-14 -138,-49 -222,-104 28,231 211,426 549,583 338,158 530,259 576,306 -74,46 -157,60 -250,41 56,74 169,160 341,257 171,97 284,174 340,229 -37,10 -70,14 -97,14 -47,-18 -116,-46 -209,-83 -92,-37 -162,-60 -208,-69 46,18 65,50 55,97 -111,9 -208,-47 -291,-167 -84,-120 -144,-204 -181,-250l-222 167c-56,185 -97,340 -125,465 -28,125 -42,257 -42,396 0,111 5,194 14,250l403 500c269,46 523,-14 764,-181 55,-64 104,-159 146,-284 41,-125 90,-267 146,-424 18,-111 37,-234 55,-368 19,-134 28,-252 28,-354 0,-185 -21,-336 -63,-452 -41,-115 -132,-233 -270,-354 -84,74 -167,148 -250,222 0,-37 39,-94 118,-173 78,-79 104,-146 76,-202 -56,84 -116,169 -181,257 -64,88 -134,132 -208,132 0,-250 93,-416 278,-500 -46,111 -93,223 -139,334 37,-37 72,-84 104,-139 33,-56 53,-130 63,-222 -37,-65 -93,-116 -167,-153 -74,-37 -144,-74 -208,-111zm-1500 41c-111,-46 -197,-7 -257,118 -60,125 -118,197 -174,216l-55 -56 27 -125c-231,130 -412,273 -541,431 -28,74 -42,152 -42,236 0,74 12,153 35,236 23,83 58,171 104,264 0,241 46,509 139,805 92,297 278,686 555,1167 102,37 223,56 361,56 325,0 612,-102 862,-306l27 -42c-74,-46 -162,-122 -264,-229 -101,-106 -175,-178 -222,-215 -18,-65 -28,-162 -28,-292 0,-74 7,-160 21,-257 14,-97 21,-169 21,-215l-28 -56c-92,-9 -152,42 -180,153 -28,111 -51,218 -70,320 -27,-56 -41,-102 -41,-139 0,-28 14,-88 41,-181 28,-92 37,-166 28,-222 -83,-56 -164,-134 -243,-236 -79,-102 -164,-222 -257,-361 -55,9 -148,53 -278,132 -129,78 -236,104 -319,76 55,-55 148,-113 278,-174 129,-60 208,-99 236,-118 18,-101 -37,-152 -167,-152 -222,0 -342,-37 -361,-111 37,-19 93,-17 167,6 74,24 129,26 166,7 -55,-64 -69,-106 -41,-125 148,75 254,132 319,174 65,42 107,100 125,174 19,18 90,120 215,305 125,185 239,292 341,320l-42 -98c-28,-166 5,-296 97,-388 -28,-28 -60,-88 -97,-181 -37,-93 -74,-148 -111,-167l-139 98 69 83 -41 28c-93,0 -148,-10 -167,-28 65,-130 167,-213 306,-250l-181 -417 -194 -264zm902 848c-46,64 -32,111 42,138 83,37 139,33 167,-13l-209 -125zm-194 472c-9,-19 -56,-14 -139,14 0,92 9,152 28,180 37,9 92,-4 167,-41 0,-65 -19,-116 -56,-153zm472 1778l0 111c148,0 255,-19 320,-56l-320 -55zm500 125l-55 0 -98 513 153 -513zm-722 13c-46,65 -79,169 -97,313 -19,143 -33,271 -42,382l139 -695zm500 42c-28,19 -81,33 -160,42 -78,9 -132,23 -159,41 -56,287 -98,524 -125,709 -28,185 -42,379 -42,583 46,0 92,-14 139,-42 46,-27 92,-55 139,-83 0,-130 34,-342 104,-639 69,-296 104,-500 104,-611zm-417 42c-83,250 -145,481 -187,694 -42,213 -63,431 -63,653 84,-444 167,-894 250,-1347zm-305 69c-37,139 -146,213 -327,222 -180,10 -331,14 -451,14 -46,0 -74,-27 -83,-83 -10,-56 -47,-74 -111,-56 -47,102 -86,257 -118,466 -33,208 -58,345 -77,409 278,112 560,223 847,334 37,0 93,-9 167,-28 65,-426 134,-852 208,-1278l-55 0zm0 931l55 -167 -55 167zm694 83l14 -180 -14 180z"
   id="path756" /></g></svg>
