<svg xmlns="http://www.w3.org/2000/svg" xmlns:xlink="http://www.w3.org/1999/xlink" width="214" zoomAndPan="magnify" viewBox="0 0 160.5 50.249999" height="67" preserveAspectRatio="xMidYMid meet" version="1.0"><defs><g/><clipPath id="ca90e0bf5a"><path d="M 1.269531 0 L 24.191406 0 L 24.191406 22.921875 L 1.269531 22.921875 Z M 1.269531 0 " clip-rule="nonzero"/></clipPath><clipPath id="bb0b99b301"><path d="M 12.730469 0 C 6.402344 0 1.269531 5.132812 1.269531 11.460938 C 1.269531 17.789062 6.402344 22.921875 12.730469 22.921875 C 19.058594 22.921875 24.191406 17.789062 24.191406 11.460938 C 24.191406 5.132812 19.058594 0 12.730469 0 Z M 12.730469 0 " clip-rule="nonzero"/></clipPath><clipPath id="fa6a104198"><path d="M 5.894531 27.101562 L 16.265625 27.101562 L 16.265625 37.46875 L 5.894531 37.46875 Z M 5.894531 27.101562 " clip-rule="nonzero"/></clipPath><clipPath id="c67ed5dc4d"><path d="M 11.082031 27.101562 C 8.21875 27.101562 5.894531 29.421875 5.894531 32.285156 C 5.894531 35.148438 8.21875 37.46875 11.082031 37.46875 C 13.945312 37.46875 16.265625 35.148438 16.265625 32.285156 C 16.265625 29.421875 13.945312 27.101562 11.082031 27.101562 Z M 11.082031 27.101562 " clip-rule="nonzero"/></clipPath><clipPath id="88c26efda8"><path d="M 1.269531 36.386719 L 5.464844 36.386719 L 5.464844 40.582031 L 1.269531 40.582031 Z M 1.269531 36.386719 " clip-rule="nonzero"/></clipPath><clipPath id="cedb42d409"><path d="M 3.367188 36.386719 C 2.210938 36.386719 1.269531 37.328125 1.269531 38.484375 C 1.269531 39.644531 2.210938 40.582031 3.367188 40.582031 C 4.527344 40.582031 5.464844 39.644531 5.464844 38.484375 C 5.464844 37.328125 4.527344 36.386719 3.367188 36.386719 Z M 3.367188 36.386719 " clip-rule="nonzero"/></clipPath><clipPath id="f390ccabe7"><path d="M 18.820312 21.480469 L 37.921875 21.480469 L 37.921875 40.582031 L 18.820312 40.582031 Z M 18.820312 21.480469 " clip-rule="nonzero"/></clipPath><clipPath id="49accdf6c1"><path d="M 28.371094 21.480469 C 23.097656 21.480469 18.820312 25.757812 18.820312 31.03125 C 18.820312 36.308594 23.097656 40.582031 28.371094 40.582031 C 33.648438 40.582031 37.921875 36.308594 37.921875 31.03125 C 37.921875 25.757812 33.648438 21.480469 28.371094 21.480469 Z M 28.371094 21.480469 " clip-rule="nonzero"/></clipPath><linearGradient x1="-0.0000147411" gradientTransform="matrix(0.0746201, 0, 0, 0.0746201, 18.820452, 21.481034)" y1="0" x2="255.999991" gradientUnits="userSpaceOnUse" y2="0" id="1b44143b4c"><stop stop-opacity="1" stop-color="rgb(54.899597%, 32.199097%, 100%)" offset="0"/><stop stop-opacity="1" stop-color="rgb(54.684448%, 32.365417%, 99.760437%)" offset="0.00390625"/><stop stop-opacity="1" stop-color="rgb(54.470825%, 32.533264%, 99.520874%)" offset="0.0078125"/><stop stop-opacity="1" stop-color="rgb(54.255676%, 32.699585%, 99.281311%)" offset="0.0117188"/><stop stop-opacity="1" stop-color="rgb(54.042053%, 32.865906%, 99.043274%)" offset="0.015625"/><stop stop-opacity="1" stop-color="rgb(53.826904%, 33.032227%, 98.803711%)" offset="0.0195312"/><stop stop-opacity="1" stop-color="rgb(53.613281%, 33.200073%, 98.564148%)" offset="0.0234375"/><stop stop-opacity="1" stop-color="rgb(53.398132%, 33.366394%, 98.324585%)" offset="0.0273438"/><stop stop-opacity="1" stop-color="rgb(53.182983%, 33.534241%, 98.086548%)" offset="0.03125"/><stop stop-opacity="1" stop-color="rgb(52.967834%, 33.700562%, 97.846985%)" offset="0.0351562"/><stop stop-opacity="1" stop-color="rgb(52.754211%, 33.866882%, 97.608948%)" offset="0.0390625"/><stop stop-opacity="1" stop-color="rgb(52.539062%, 34.033203%, 97.369385%)" offset="0.0429688"/><stop stop-opacity="1" stop-color="rgb(52.325439%, 34.20105%, 97.129822%)" offset="0.046875"/><stop stop-opacity="1" stop-color="rgb(52.110291%, 34.367371%, 96.890259%)" offset="0.0507812"/><stop stop-opacity="1" stop-color="rgb(51.896667%, 34.533691%, 96.652222%)" offset="0.0546875"/><stop stop-opacity="1" stop-color="rgb(51.681519%, 34.700012%, 96.412659%)" offset="0.0585938"/><stop stop-opacity="1" stop-color="rgb(51.467896%, 34.867859%, 96.174622%)" offset="0.0625"/><stop stop-opacity="1" stop-color="rgb(51.252747%, 35.03418%, 95.935059%)" offset="0.0664062"/><stop stop-opacity="1" stop-color="rgb(51.039124%, 35.202026%, 95.695496%)" offset="0.0703125"/><stop stop-opacity="1" stop-color="rgb(50.823975%, 35.368347%, 95.455933%)" offset="0.0742188"/><stop stop-opacity="1" stop-color="rgb(50.610352%, 35.534668%, 95.217896%)" offset="0.078125"/><stop stop-opacity="1" stop-color="rgb(50.395203%, 35.700989%, 94.978333%)" offset="0.0820312"/><stop stop-opacity="1" stop-color="rgb(50.18158%, 35.868835%, 94.740295%)" offset="0.0859375"/><stop stop-opacity="1" stop-color="rgb(49.966431%, 36.035156%, 94.500732%)" offset="0.0898438"/><stop stop-opacity="1" stop-color="rgb(49.752808%, 36.203003%, 94.261169%)" offset="0.09375"/><stop stop-opacity="1" stop-color="rgb(49.537659%, 36.369324%, 94.021606%)" offset="0.0976562"/><stop stop-opacity="1" stop-color="rgb(49.324036%, 36.535645%, 93.783569%)" offset="0.101562"/><stop stop-opacity="1" stop-color="rgb(49.108887%, 36.701965%, 93.544006%)" offset="0.105469"/><stop stop-opacity="1" stop-color="rgb(48.895264%, 36.869812%, 93.305969%)" offset="0.109375"/><stop stop-opacity="1" stop-color="rgb(48.680115%, 37.036133%, 93.066406%)" offset="0.113281"/><stop stop-opacity="1" stop-color="rgb(48.464966%, 37.202454%, 92.826843%)" offset="0.117188"/><stop stop-opacity="1" stop-color="rgb(48.249817%, 37.368774%, 92.58728%)" offset="0.121094"/><stop stop-opacity="1" stop-color="rgb(48.036194%, 37.536621%, 92.349243%)" offset="0.125"/><stop stop-opacity="1" stop-color="rgb(47.821045%, 37.702942%, 92.10968%)" offset="0.128906"/><stop stop-opacity="1" stop-color="rgb(47.607422%, 37.870789%, 91.871643%)" offset="0.132812"/><stop stop-opacity="1" stop-color="rgb(47.392273%, 38.037109%, 91.63208%)" offset="0.136719"/><stop stop-opacity="1" stop-color="rgb(47.17865%, 38.20343%, 91.392517%)" offset="0.140625"/><stop stop-opacity="1" stop-color="rgb(46.963501%, 38.369751%, 91.152954%)" offset="0.144531"/><stop stop-opacity="1" stop-color="rgb(46.749878%, 38.537598%, 90.914917%)" offset="0.148438"/><stop stop-opacity="1" stop-color="rgb(46.534729%, 38.703918%, 90.675354%)" offset="0.152344"/><stop stop-opacity="1" stop-color="rgb(46.321106%, 38.871765%, 90.437317%)" offset="0.15625"/><stop stop-opacity="1" stop-color="rgb(46.105957%, 39.038086%, 90.197754%)" offset="0.160156"/><stop stop-opacity="1" stop-color="rgb(45.892334%, 39.204407%, 89.958191%)" offset="0.164062"/><stop stop-opacity="1" stop-color="rgb(45.677185%, 39.370728%, 89.718628%)" offset="0.167969"/><stop stop-opacity="1" stop-color="rgb(45.463562%, 39.538574%, 89.480591%)" offset="0.171875"/><stop stop-opacity="1" stop-color="rgb(45.248413%, 39.704895%, 89.241028%)" offset="0.175781"/><stop stop-opacity="1" stop-color="rgb(45.03479%, 39.871216%, 89.002991%)" offset="0.179688"/><stop stop-opacity="1" stop-color="rgb(44.819641%, 40.037537%, 88.763428%)" offset="0.183594"/><stop stop-opacity="1" stop-color="rgb(44.606018%, 40.205383%, 88.523865%)" offset="0.1875"/><stop stop-opacity="1" stop-color="rgb(44.390869%, 40.371704%, 88.284302%)" offset="0.191406"/><stop stop-opacity="1" stop-color="rgb(44.177246%, 40.539551%, 88.046265%)" offset="0.195312"/><stop stop-opacity="1" stop-color="rgb(43.962097%, 40.705872%, 87.806702%)" offset="0.199219"/><stop stop-opacity="1" stop-color="rgb(43.746948%, 40.872192%, 87.568665%)" offset="0.203125"/><stop stop-opacity="1" stop-color="rgb(43.531799%, 41.038513%, 87.329102%)" offset="0.207031"/><stop stop-opacity="1" stop-color="rgb(43.318176%, 41.20636%, 87.089539%)" offset="0.210938"/><stop stop-opacity="1" stop-color="rgb(43.103027%, 41.372681%, 86.849976%)" offset="0.214844"/><stop stop-opacity="1" stop-color="rgb(42.889404%, 41.540527%, 86.611938%)" offset="0.21875"/><stop stop-opacity="1" stop-color="rgb(42.674255%, 41.706848%, 86.372375%)" offset="0.222656"/><stop stop-opacity="1" stop-color="rgb(42.460632%, 41.873169%, 86.134338%)" offset="0.226562"/><stop stop-opacity="1" stop-color="rgb(42.245483%, 42.03949%, 85.894775%)" offset="0.230469"/><stop stop-opacity="1" stop-color="rgb(42.03186%, 42.207336%, 85.655212%)" offset="0.234375"/><stop stop-opacity="1" stop-color="rgb(41.816711%, 42.373657%, 85.415649%)" offset="0.238281"/><stop stop-opacity="1" stop-color="rgb(41.603088%, 42.539978%, 85.177612%)" offset="0.242188"/><stop stop-opacity="1" stop-color="rgb(41.387939%, 42.706299%, 84.938049%)" offset="0.246094"/><stop stop-opacity="1" stop-color="rgb(41.174316%, 42.874146%, 84.698486%)" offset="0.25"/><stop stop-opacity="1" stop-color="rgb(40.959167%, 43.040466%, 84.458923%)" offset="0.253906"/><stop stop-opacity="1" stop-color="rgb(40.745544%, 43.208313%, 84.220886%)" offset="0.257812"/><stop stop-opacity="1" stop-color="rgb(40.530396%, 43.374634%, 83.981323%)" offset="0.261719"/><stop stop-opacity="1" stop-color="rgb(40.316772%, 43.540955%, 83.743286%)" offset="0.265625"/><stop stop-opacity="1" stop-color="rgb(40.101624%, 43.707275%, 83.503723%)" offset="0.269531"/><stop stop-opacity="1" stop-color="rgb(39.888%, 43.875122%, 83.26416%)" offset="0.273438"/><stop stop-opacity="1" stop-color="rgb(39.672852%, 44.041443%, 83.024597%)" offset="0.277344"/><stop stop-opacity="1" stop-color="rgb(39.459229%, 44.20929%, 82.78656%)" offset="0.28125"/><stop stop-opacity="1" stop-color="rgb(39.24408%, 44.37561%, 82.546997%)" offset="0.285156"/><stop stop-opacity="1" stop-color="rgb(39.030457%, 44.541931%, 82.30896%)" offset="0.289062"/><stop stop-opacity="1" stop-color="rgb(38.815308%, 44.708252%, 82.069397%)" offset="0.292969"/><stop stop-opacity="1" stop-color="rgb(38.600159%, 44.876099%, 81.829834%)" offset="0.296875"/><stop stop-opacity="1" stop-color="rgb(38.38501%, 45.042419%, 81.590271%)" offset="0.300781"/><stop stop-opacity="1" stop-color="rgb(38.171387%, 45.20874%, 81.352234%)" offset="0.304688"/><stop stop-opacity="1" stop-color="rgb(37.956238%, 45.375061%, 81.112671%)" offset="0.308594"/><stop stop-opacity="1" stop-color="rgb(37.742615%, 45.542908%, 80.874634%)" offset="0.3125"/><stop stop-opacity="1" stop-color="rgb(37.527466%, 45.709229%, 80.635071%)" offset="0.316406"/><stop stop-opacity="1" stop-color="rgb(37.313843%, 45.877075%, 80.395508%)" offset="0.320312"/><stop stop-opacity="1" stop-color="rgb(37.098694%, 46.043396%, 80.155945%)" offset="0.324219"/><stop stop-opacity="1" stop-color="rgb(36.885071%, 46.209717%, 79.917908%)" offset="0.328125"/><stop stop-opacity="1" stop-color="rgb(36.669922%, 46.376038%, 79.678345%)" offset="0.332031"/><stop stop-opacity="1" stop-color="rgb(36.456299%, 46.543884%, 79.440308%)" offset="0.335938"/><stop stop-opacity="1" stop-color="rgb(36.24115%, 46.710205%, 79.200745%)" offset="0.339844"/><stop stop-opacity="1" stop-color="rgb(36.027527%, 46.878052%, 78.961182%)" offset="0.34375"/><stop stop-opacity="1" stop-color="rgb(35.812378%, 47.044373%, 78.721619%)" offset="0.347656"/><stop stop-opacity="1" stop-color="rgb(35.598755%, 47.210693%, 78.483582%)" offset="0.351562"/><stop stop-opacity="1" stop-color="rgb(35.383606%, 47.377014%, 78.244019%)" offset="0.355469"/><stop stop-opacity="1" stop-color="rgb(35.169983%, 47.544861%, 78.005981%)" offset="0.359375"/><stop stop-opacity="1" stop-color="rgb(34.954834%, 47.711182%, 77.766418%)" offset="0.363281"/><stop stop-opacity="1" stop-color="rgb(34.741211%, 47.877502%, 77.526855%)" offset="0.367188"/><stop stop-opacity="1" stop-color="rgb(34.526062%, 48.043823%, 77.287292%)" offset="0.371094"/><stop stop-opacity="1" stop-color="rgb(34.312439%, 48.21167%, 77.049255%)" offset="0.375"/><stop stop-opacity="1" stop-color="rgb(34.09729%, 48.377991%, 76.809692%)" offset="0.378906"/><stop stop-opacity="1" stop-color="rgb(33.882141%, 48.545837%, 76.571655%)" offset="0.382812"/><stop stop-opacity="1" stop-color="rgb(33.666992%, 48.712158%, 76.332092%)" offset="0.386719"/><stop stop-opacity="1" stop-color="rgb(33.453369%, 48.878479%, 76.092529%)" offset="0.390625"/><stop stop-opacity="1" stop-color="rgb(33.23822%, 49.0448%, 75.852966%)" offset="0.394531"/><stop stop-opacity="1" stop-color="rgb(33.024597%, 49.212646%, 75.614929%)" offset="0.398438"/><stop stop-opacity="1" stop-color="rgb(32.809448%, 49.378967%, 75.375366%)" offset="0.402344"/><stop stop-opacity="1" stop-color="rgb(32.595825%, 49.546814%, 75.137329%)" offset="0.40625"/><stop stop-opacity="1" stop-color="rgb(32.380676%, 49.713135%, 74.897766%)" offset="0.410156"/><stop stop-opacity="1" stop-color="rgb(32.167053%, 49.879456%, 74.658203%)" offset="0.414062"/><stop stop-opacity="1" stop-color="rgb(31.951904%, 50.045776%, 74.41864%)" offset="0.417969"/><stop stop-opacity="1" stop-color="rgb(31.738281%, 50.213623%, 74.180603%)" offset="0.421875"/><stop stop-opacity="1" stop-color="rgb(31.523132%, 50.379944%, 73.94104%)" offset="0.425781"/><stop stop-opacity="1" stop-color="rgb(31.309509%, 50.546265%, 73.703003%)" offset="0.429688"/><stop stop-opacity="1" stop-color="rgb(31.09436%, 50.712585%, 73.46344%)" offset="0.433594"/><stop stop-opacity="1" stop-color="rgb(30.880737%, 50.880432%, 73.223877%)" offset="0.4375"/><stop stop-opacity="1" stop-color="rgb(30.665588%, 51.046753%, 72.984314%)" offset="0.441406"/><stop stop-opacity="1" stop-color="rgb(30.451965%, 51.2146%, 72.746277%)" offset="0.445312"/><stop stop-opacity="1" stop-color="rgb(30.236816%, 51.38092%, 72.506714%)" offset="0.449219"/><stop stop-opacity="1" stop-color="rgb(30.023193%, 51.547241%, 72.268677%)" offset="0.453125"/><stop stop-opacity="1" stop-color="rgb(29.808044%, 51.713562%, 72.029114%)" offset="0.457031"/><stop stop-opacity="1" stop-color="rgb(29.594421%, 51.881409%, 71.789551%)" offset="0.460938"/><stop stop-opacity="1" stop-color="rgb(29.379272%, 52.047729%, 71.549988%)" offset="0.464844"/><stop stop-opacity="1" stop-color="rgb(29.164124%, 52.215576%, 71.311951%)" offset="0.46875"/><stop stop-opacity="1" stop-color="rgb(28.948975%, 52.381897%, 71.072388%)" offset="0.472656"/><stop stop-opacity="1" stop-color="rgb(28.735352%, 52.548218%, 70.834351%)" offset="0.476562"/><stop stop-opacity="1" stop-color="rgb(28.520203%, 52.714539%, 70.594788%)" offset="0.480469"/><stop stop-opacity="1" stop-color="rgb(28.30658%, 52.882385%, 70.355225%)" offset="0.484375"/><stop stop-opacity="1" stop-color="rgb(28.091431%, 53.048706%, 70.115662%)" offset="0.488281"/><stop stop-opacity="1" stop-color="rgb(27.877808%, 53.215027%, 69.877625%)" offset="0.492188"/><stop stop-opacity="1" stop-color="rgb(27.662659%, 53.381348%, 69.638062%)" offset="0.496094"/><stop stop-opacity="1" stop-color="rgb(27.449036%, 53.549194%, 69.398499%)" offset="0.5"/><stop stop-opacity="1" stop-color="rgb(27.233887%, 53.715515%, 69.158936%)" offset="0.503906"/><stop stop-opacity="1" stop-color="rgb(27.020264%, 53.883362%, 68.920898%)" offset="0.507812"/><stop stop-opacity="1" stop-color="rgb(26.805115%, 54.049683%, 68.681335%)" offset="0.511719"/><stop stop-opacity="1" stop-color="rgb(26.591492%, 54.216003%, 68.443298%)" offset="0.515625"/><stop stop-opacity="1" stop-color="rgb(26.376343%, 54.382324%, 68.203735%)" offset="0.519531"/><stop stop-opacity="1" stop-color="rgb(26.16272%, 54.550171%, 67.964172%)" offset="0.523438"/><stop stop-opacity="1" stop-color="rgb(25.947571%, 54.716492%, 67.724609%)" offset="0.527344"/><stop stop-opacity="1" stop-color="rgb(25.733948%, 54.884338%, 67.486572%)" offset="0.53125"/><stop stop-opacity="1" stop-color="rgb(25.518799%, 55.050659%, 67.247009%)" offset="0.535156"/><stop stop-opacity="1" stop-color="rgb(25.305176%, 55.21698%, 67.008972%)" offset="0.539062"/><stop stop-opacity="1" stop-color="rgb(25.090027%, 55.383301%, 66.769409%)" offset="0.542969"/><stop stop-opacity="1" stop-color="rgb(24.876404%, 55.551147%, 66.529846%)" offset="0.546875"/><stop stop-opacity="1" stop-color="rgb(24.661255%, 55.717468%, 66.290283%)" offset="0.550781"/><stop stop-opacity="1" stop-color="rgb(24.447632%, 55.883789%, 66.052246%)" offset="0.554688"/><stop stop-opacity="1" stop-color="rgb(24.232483%, 56.05011%, 65.812683%)" offset="0.558594"/><stop stop-opacity="1" stop-color="rgb(24.017334%, 56.217957%, 65.574646%)" offset="0.5625"/><stop stop-opacity="1" stop-color="rgb(23.802185%, 56.384277%, 65.335083%)" offset="0.566406"/><stop stop-opacity="1" stop-color="rgb(23.588562%, 56.552124%, 65.09552%)" offset="0.570312"/><stop stop-opacity="1" stop-color="rgb(23.373413%, 56.718445%, 64.855957%)" offset="0.574219"/><stop stop-opacity="1" stop-color="rgb(23.15979%, 56.884766%, 64.61792%)" offset="0.578125"/><stop stop-opacity="1" stop-color="rgb(22.944641%, 57.051086%, 64.378357%)" offset="0.582031"/><stop stop-opacity="1" stop-color="rgb(22.731018%, 57.218933%, 64.14032%)" offset="0.585938"/><stop stop-opacity="1" stop-color="rgb(22.515869%, 57.385254%, 63.900757%)" offset="0.589844"/><stop stop-opacity="1" stop-color="rgb(22.302246%, 57.553101%, 63.661194%)" offset="0.59375"/><stop stop-opacity="1" stop-color="rgb(22.087097%, 57.719421%, 63.421631%)" offset="0.597656"/><stop stop-opacity="1" stop-color="rgb(21.873474%, 57.885742%, 63.183594%)" offset="0.601562"/><stop stop-opacity="1" stop-color="rgb(21.658325%, 58.052063%, 62.944031%)" offset="0.605469"/><stop stop-opacity="1" stop-color="rgb(21.444702%, 58.21991%, 62.705994%)" offset="0.609375"/><stop stop-opacity="1" stop-color="rgb(21.229553%, 58.38623%, 62.466431%)" offset="0.613281"/><stop stop-opacity="1" stop-color="rgb(21.01593%, 58.552551%, 62.226868%)" offset="0.617188"/><stop stop-opacity="1" stop-color="rgb(20.800781%, 58.718872%, 61.987305%)" offset="0.621094"/><stop stop-opacity="1" stop-color="rgb(20.587158%, 58.886719%, 61.749268%)" offset="0.625"/><stop stop-opacity="1" stop-color="rgb(20.372009%, 59.05304%, 61.509705%)" offset="0.628906"/><stop stop-opacity="1" stop-color="rgb(20.158386%, 59.220886%, 61.271667%)" offset="0.632812"/><stop stop-opacity="1" stop-color="rgb(19.943237%, 59.387207%, 61.032104%)" offset="0.636719"/><stop stop-opacity="1" stop-color="rgb(19.729614%, 59.553528%, 60.792542%)" offset="0.640625"/><stop stop-opacity="1" stop-color="rgb(19.514465%, 59.719849%, 60.552979%)" offset="0.644531"/><stop stop-opacity="1" stop-color="rgb(19.299316%, 59.887695%, 60.314941%)" offset="0.648438"/><stop stop-opacity="1" stop-color="rgb(19.084167%, 60.054016%, 60.075378%)" offset="0.652344"/><stop stop-opacity="1" stop-color="rgb(18.870544%, 60.221863%, 59.837341%)" offset="0.65625"/><stop stop-opacity="1" stop-color="rgb(18.655396%, 60.388184%, 59.597778%)" offset="0.660156"/><stop stop-opacity="1" stop-color="rgb(18.441772%, 60.554504%, 59.358215%)" offset="0.664062"/><stop stop-opacity="1" stop-color="rgb(18.226624%, 60.720825%, 59.118652%)" offset="0.667969"/><stop stop-opacity="1" stop-color="rgb(18.013%, 60.888672%, 58.880615%)" offset="0.671875"/><stop stop-opacity="1" stop-color="rgb(17.797852%, 61.054993%, 58.641052%)" offset="0.675781"/><stop stop-opacity="1" stop-color="rgb(17.584229%, 61.221313%, 58.403015%)" offset="0.679688"/><stop stop-opacity="1" stop-color="rgb(17.36908%, 61.387634%, 58.163452%)" offset="0.683594"/><stop stop-opacity="1" stop-color="rgb(17.155457%, 61.555481%, 57.923889%)" offset="0.6875"/><stop stop-opacity="1" stop-color="rgb(16.940308%, 61.721802%, 57.684326%)" offset="0.691406"/><stop stop-opacity="1" stop-color="rgb(16.726685%, 61.889648%, 57.446289%)" offset="0.695312"/><stop stop-opacity="1" stop-color="rgb(16.511536%, 62.055969%, 57.206726%)" offset="0.699219"/><stop stop-opacity="1" stop-color="rgb(16.297913%, 62.22229%, 56.968689%)" offset="0.703125"/><stop stop-opacity="1" stop-color="rgb(16.082764%, 62.388611%, 56.729126%)" offset="0.707031"/><stop stop-opacity="1" stop-color="rgb(15.869141%, 62.556458%, 56.489563%)" offset="0.710938"/><stop stop-opacity="1" stop-color="rgb(15.653992%, 62.722778%, 56.25%)" offset="0.714844"/><stop stop-opacity="1" stop-color="rgb(15.440369%, 62.889099%, 56.011963%)" offset="0.71875"/><stop stop-opacity="1" stop-color="rgb(15.22522%, 63.05542%, 55.7724%)" offset="0.722656"/><stop stop-opacity="1" stop-color="rgb(15.011597%, 63.223267%, 55.534363%)" offset="0.726562"/><stop stop-opacity="1" stop-color="rgb(14.796448%, 63.389587%, 55.2948%)" offset="0.730469"/><stop stop-opacity="1" stop-color="rgb(14.581299%, 63.557434%, 55.055237%)" offset="0.734375"/><stop stop-opacity="1" stop-color="rgb(14.36615%, 63.723755%, 54.815674%)" offset="0.738281"/><stop stop-opacity="1" stop-color="rgb(14.152527%, 63.890076%, 54.577637%)" offset="0.742188"/><stop stop-opacity="1" stop-color="rgb(13.937378%, 64.056396%, 54.338074%)" offset="0.746094"/><stop stop-opacity="1" stop-color="rgb(13.723755%, 64.224243%, 54.098511%)" offset="0.75"/><stop stop-opacity="1" stop-color="rgb(13.508606%, 64.390564%, 53.858948%)" offset="0.753906"/><stop stop-opacity="1" stop-color="rgb(13.294983%, 64.558411%, 53.620911%)" offset="0.757812"/><stop stop-opacity="1" stop-color="rgb(13.079834%, 64.724731%, 53.381348%)" offset="0.761719"/><stop stop-opacity="1" stop-color="rgb(12.866211%, 64.891052%, 53.143311%)" offset="0.765625"/><stop stop-opacity="1" stop-color="rgb(12.651062%, 65.057373%, 52.903748%)" offset="0.769531"/><stop stop-opacity="1" stop-color="rgb(12.437439%, 65.22522%, 52.664185%)" offset="0.773438"/><stop stop-opacity="1" stop-color="rgb(12.22229%, 65.391541%, 52.424622%)" offset="0.777344"/><stop stop-opacity="1" stop-color="rgb(12.008667%, 65.557861%, 52.186584%)" offset="0.78125"/><stop stop-opacity="1" stop-color="rgb(11.793518%, 65.724182%, 51.947021%)" offset="0.785156"/><stop stop-opacity="1" stop-color="rgb(11.579895%, 65.892029%, 51.708984%)" offset="0.789062"/><stop stop-opacity="1" stop-color="rgb(11.364746%, 66.05835%, 51.469421%)" offset="0.792969"/><stop stop-opacity="1" stop-color="rgb(11.151123%, 66.226196%, 51.229858%)" offset="0.796875"/><stop stop-opacity="1" stop-color="rgb(10.935974%, 66.392517%, 50.990295%)" offset="0.800781"/><stop stop-opacity="1" stop-color="rgb(10.722351%, 66.558838%, 50.752258%)" offset="0.804688"/><stop stop-opacity="1" stop-color="rgb(10.507202%, 66.725159%, 50.512695%)" offset="0.808594"/><stop stop-opacity="1" stop-color="rgb(10.293579%, 66.893005%, 50.274658%)" offset="0.8125"/><stop stop-opacity="1" stop-color="rgb(10.07843%, 67.059326%, 50.035095%)" offset="0.816406"/><stop stop-opacity="1" stop-color="rgb(9.864807%, 67.227173%, 49.795532%)" offset="0.820312"/><stop stop-opacity="1" stop-color="rgb(9.649658%, 67.393494%, 49.555969%)" offset="0.824219"/><stop stop-opacity="1" stop-color="rgb(9.434509%, 67.559814%, 49.317932%)" offset="0.828125"/><stop stop-opacity="1" stop-color="rgb(9.21936%, 67.726135%, 49.078369%)" offset="0.832031"/><stop stop-opacity="1" stop-color="rgb(9.005737%, 67.893982%, 48.840332%)" offset="0.835938"/><stop stop-opacity="1" stop-color="rgb(8.790588%, 68.060303%, 48.600769%)" offset="0.839844"/><stop stop-opacity="1" stop-color="rgb(8.576965%, 68.226624%, 48.361206%)" offset="0.84375"/><stop stop-opacity="1" stop-color="rgb(8.361816%, 68.392944%, 48.121643%)" offset="0.847656"/><stop stop-opacity="1" stop-color="rgb(8.148193%, 68.560791%, 47.883606%)" offset="0.851562"/><stop stop-opacity="1" stop-color="rgb(7.933044%, 68.727112%, 47.644043%)" offset="0.855469"/><stop stop-opacity="1" stop-color="rgb(7.719421%, 68.894958%, 47.406006%)" offset="0.859375"/><stop stop-opacity="1" stop-color="rgb(7.504272%, 69.061279%, 47.166443%)" offset="0.863281"/><stop stop-opacity="1" stop-color="rgb(7.290649%, 69.2276%, 46.92688%)" offset="0.867188"/><stop stop-opacity="1" stop-color="rgb(7.0755%, 69.393921%, 46.687317%)" offset="0.871094"/><stop stop-opacity="1" stop-color="rgb(6.861877%, 69.561768%, 46.44928%)" offset="0.875"/><stop stop-opacity="1" stop-color="rgb(6.646729%, 69.728088%, 46.209717%)" offset="0.878906"/><stop stop-opacity="1" stop-color="rgb(6.433105%, 69.895935%, 45.97168%)" offset="0.882812"/><stop stop-opacity="1" stop-color="rgb(6.217957%, 70.062256%, 45.732117%)" offset="0.886719"/><stop stop-opacity="1" stop-color="rgb(6.004333%, 70.228577%, 45.492554%)" offset="0.890625"/><stop stop-opacity="1" stop-color="rgb(5.789185%, 70.394897%, 45.252991%)" offset="0.894531"/><stop stop-opacity="1" stop-color="rgb(5.575562%, 70.562744%, 45.014954%)" offset="0.898438"/><stop stop-opacity="1" stop-color="rgb(5.360413%, 70.729065%, 44.775391%)" offset="0.902344"/><stop stop-opacity="1" stop-color="rgb(5.14679%, 70.895386%, 44.537354%)" offset="0.90625"/><stop stop-opacity="1" stop-color="rgb(4.931641%, 71.061707%, 44.297791%)" offset="0.910156"/><stop stop-opacity="1" stop-color="rgb(4.716492%, 71.229553%, 44.058228%)" offset="0.914062"/><stop stop-opacity="1" stop-color="rgb(4.501343%, 71.395874%, 43.818665%)" offset="0.917969"/><stop stop-opacity="1" stop-color="rgb(4.28772%, 71.563721%, 43.580627%)" offset="0.921875"/><stop stop-opacity="1" stop-color="rgb(4.072571%, 71.730042%, 43.341064%)" offset="0.925781"/><stop stop-opacity="1" stop-color="rgb(3.858948%, 71.896362%, 43.103027%)" offset="0.929688"/><stop stop-opacity="1" stop-color="rgb(3.643799%, 72.062683%, 42.863464%)" offset="0.933594"/><stop stop-opacity="1" stop-color="rgb(3.430176%, 72.23053%, 42.623901%)" offset="0.9375"/><stop stop-opacity="1" stop-color="rgb(3.215027%, 72.396851%, 42.384338%)" offset="0.941406"/><stop stop-opacity="1" stop-color="rgb(3.001404%, 72.564697%, 42.146301%)" offset="0.945312"/><stop stop-opacity="1" stop-color="rgb(2.786255%, 72.731018%, 41.906738%)" offset="0.949219"/><stop stop-opacity="1" stop-color="rgb(2.572632%, 72.897339%, 41.668701%)" offset="0.953125"/><stop stop-opacity="1" stop-color="rgb(2.357483%, 73.06366%, 41.429138%)" offset="0.957031"/><stop stop-opacity="1" stop-color="rgb(2.14386%, 73.231506%, 41.189575%)" offset="0.960938"/><stop stop-opacity="1" stop-color="rgb(1.928711%, 73.397827%, 40.950012%)" offset="0.964844"/><stop stop-opacity="1" stop-color="rgb(1.715088%, 73.564148%, 40.711975%)" offset="0.96875"/><stop stop-opacity="1" stop-color="rgb(1.499939%, 73.730469%, 40.472412%)" offset="0.972656"/><stop stop-opacity="1" stop-color="rgb(1.286316%, 73.898315%, 40.234375%)" offset="0.976562"/><stop stop-opacity="1" stop-color="rgb(1.071167%, 74.064636%, 39.994812%)" offset="0.980469"/><stop stop-opacity="1" stop-color="rgb(0.857544%, 74.232483%, 39.755249%)" offset="0.984375"/><stop stop-opacity="1" stop-color="rgb(0.642395%, 74.398804%, 39.515686%)" offset="0.988281"/><stop stop-opacity="1" stop-color="rgb(0.428772%, 74.565125%, 39.277649%)" offset="0.992188"/><stop stop-opacity="1" stop-color="rgb(0.213623%, 74.731445%, 39.038086%)" offset="0.996094"/><stop stop-opacity="1" stop-color="rgb(0%, 74.899292%, 38.798523%)" offset="1"/></linearGradient><clipPath id="25304ab77d"><path d="M 15.464844 25.335938 L 17.914062 25.335938 L 17.914062 27.78125 L 15.464844 27.78125 Z M 15.464844 25.335938 " clip-rule="nonzero"/></clipPath><clipPath id="4061a2cbbd"><path d="M 16.691406 25.335938 C 16.015625 25.335938 15.464844 25.882812 15.464844 26.558594 C 15.464844 27.234375 16.015625 27.78125 16.691406 27.78125 C 17.367188 27.78125 17.914062 27.234375 17.914062 26.558594 C 17.914062 25.882812 17.367188 25.335938 16.691406 25.335938 Z M 16.691406 25.335938 " clip-rule="nonzero"/></clipPath></defs><g clip-path="url(#ca90e0bf5a)"><g clip-path="url(#bb0b99b301)"><path fill="#0478fd" d="M 1.269531 0 L 24.191406 0 L 24.191406 22.921875 L 1.269531 22.921875 Z M 1.269531 0 " fill-opacity="1" fill-rule="nonzero"/></g></g><g clip-path="url(#fa6a104198)"><g clip-path="url(#c67ed5dc4d)"><path fill="#5271ff" d="M 5.894531 27.101562 L 16.265625 27.101562 L 16.265625 37.46875 L 5.894531 37.46875 Z M 5.894531 27.101562 " fill-opacity="1" fill-rule="nonzero"/></g></g><g clip-path="url(#88c26efda8)"><g clip-path="url(#cedb42d409)"><path fill="#38b6ff" d="M 1.269531 36.386719 L 5.464844 36.386719 L 5.464844 40.582031 L 1.269531 40.582031 Z M 1.269531 36.386719 " fill-opacity="1" fill-rule="nonzero"/></g></g><g clip-path="url(#f390ccabe7)"><g clip-path="url(#49accdf6c1)"><path fill="url(#1b44143b4c)" d="M 18.820312 21.480469 L 18.820312 40.582031 L 37.921875 40.582031 L 37.921875 21.480469 Z M 18.820312 21.480469 " fill-rule="nonzero"/></g></g><g clip-path="url(#25304ab77d)"><g clip-path="url(#4061a2cbbd)"><path fill="#38b6ff" d="M 15.464844 25.335938 L 17.914062 25.335938 L 17.914062 27.78125 L 15.464844 27.78125 Z M 15.464844 25.335938 " fill-opacity="1" fill-rule="nonzero"/></g></g><g fill="#0478fd" fill-opacity="1"><g transform="translate(47.803452, 37.020138)"><g><path d="M 2.265625 -3.75 C 2.535156 -3.53125 2.816406 -3.332031 3.109375 -3.15625 C 3.398438 -2.988281 3.710938 -2.832031 4.046875 -2.6875 C 4.679688 -2.414062 5.4375 -2.28125 6.3125 -2.28125 C 6.832031 -2.28125 7.285156 -2.332031 7.671875 -2.4375 C 8.054688 -2.539062 8.382812 -2.6875 8.65625 -2.875 C 9.164062 -3.238281 9.421875 -3.722656 9.421875 -4.328125 C 9.421875 -4.367188 9.421875 -4.414062 9.421875 -4.46875 C 9.421875 -4.53125 9.414062 -4.582031 9.40625 -4.625 C 9.394531 -4.675781 9.382812 -4.726562 9.375 -4.78125 C 9.375 -4.84375 9.363281 -4.890625 9.34375 -4.921875 C 9.332031 -4.960938 9.316406 -5.007812 9.296875 -5.0625 C 9.234375 -5.25 9.097656 -5.4375 8.890625 -5.625 C 8.660156 -5.851562 8.320312 -6.085938 7.875 -6.328125 C 7.382812 -6.578125 6.757812 -6.851562 6 -7.15625 C 5.113281 -7.488281 4.367188 -7.828125 3.765625 -8.171875 C 3.109375 -8.523438 2.578125 -8.914062 2.171875 -9.34375 C 2.023438 -9.5 1.894531 -9.65625 1.78125 -9.8125 C 1.675781 -9.96875 1.578125 -10.132812 1.484375 -10.3125 C 1.390625 -10.488281 1.3125 -10.664062 1.25 -10.84375 C 1.070312 -11.375 0.984375 -11.972656 0.984375 -12.640625 C 0.984375 -13.328125 1.125 -13.96875 1.40625 -14.5625 C 1.695312 -15.164062 2.117188 -15.691406 2.671875 -16.140625 C 3.210938 -16.566406 3.867188 -16.90625 4.640625 -17.15625 C 5.398438 -17.394531 6.265625 -17.515625 7.234375 -17.515625 C 8.265625 -17.515625 9.191406 -17.410156 10.015625 -17.203125 C 10.835938 -16.992188 11.644531 -16.703125 12.4375 -16.328125 L 12.9375 -16.0625 L 12.71875 -15.546875 L 11.890625 -13.625 L 11.625 -13 L 11.03125 -13.328125 C 10.875 -13.441406 10.703125 -13.535156 10.515625 -13.609375 C 10.335938 -13.691406 10.144531 -13.769531 9.9375 -13.84375 C 9.726562 -13.925781 9.507812 -14.007812 9.28125 -14.09375 C 8.613281 -14.28125 7.914062 -14.375 7.1875 -14.375 C 6.707031 -14.375 6.289062 -14.328125 5.9375 -14.234375 C 5.582031 -14.148438 5.285156 -14.03125 5.046875 -13.875 C 4.890625 -13.769531 4.757812 -13.660156 4.65625 -13.546875 C 4.5625 -13.429688 4.492188 -13.3125 4.453125 -13.1875 C 4.421875 -13.0625 4.40625 -12.921875 4.40625 -12.765625 C 4.40625 -12.503906 4.4375 -12.289062 4.5 -12.125 C 4.550781 -11.957031 4.671875 -11.796875 4.859375 -11.640625 C 4.960938 -11.546875 5.09375 -11.445312 5.25 -11.34375 C 5.414062 -11.238281 5.609375 -11.132812 5.828125 -11.03125 C 5.941406 -10.976562 6.0625 -10.921875 6.1875 -10.859375 C 6.3125 -10.796875 6.445312 -10.734375 6.59375 -10.671875 C 6.75 -10.609375 6.910156 -10.546875 7.078125 -10.484375 C 7.253906 -10.421875 7.441406 -10.347656 7.640625 -10.265625 C 8.585938 -9.921875 9.382812 -9.554688 10.03125 -9.171875 C 10.175781 -9.085938 10.3125 -9.003906 10.4375 -8.921875 C 10.5625 -8.847656 10.679688 -8.769531 10.796875 -8.6875 C 10.910156 -8.601562 11.019531 -8.515625 11.125 -8.421875 C 11.238281 -8.335938 11.34375 -8.25 11.4375 -8.15625 C 11.53125 -8.070312 11.617188 -7.984375 11.703125 -7.890625 C 12.140625 -7.410156 12.457031 -6.894531 12.65625 -6.34375 C 12.84375 -5.800781 12.9375 -5.21875 12.9375 -4.59375 C 12.9375 -3.71875 12.757812 -2.9375 12.40625 -2.25 C 12.070312 -1.570312 11.609375 -0.992188 11.015625 -0.515625 C 10.421875 -0.046875 9.710938 0.304688 8.890625 0.546875 C 8.097656 0.765625 7.238281 0.875 6.3125 0.875 C 5.082031 0.875 3.960938 0.707031 2.953125 0.375 C 1.941406 0.0390625 1.085938 -0.390625 0.390625 -0.921875 L -0.046875 -1.265625 L 0.25 -1.71875 L 1.390625 -3.609375 L 1.75 -4.203125 Z M 2.265625 -3.75 "/></g></g></g><g fill="#0478fd" fill-opacity="1"><g transform="translate(63.701262, 37.020138)"><g><path d="M 2.0625 -17.1875 C 2.75 -17.257812 3.476562 -17.316406 4.25 -17.359375 C 5.03125 -17.398438 5.851562 -17.421875 6.71875 -17.421875 C 7.8125 -17.421875 8.789062 -17.285156 9.65625 -17.015625 C 9.8125 -16.960938 9.957031 -16.910156 10.09375 -16.859375 C 10.226562 -16.816406 10.359375 -16.765625 10.484375 -16.703125 C 10.617188 -16.640625 10.742188 -16.578125 10.859375 -16.515625 C 10.984375 -16.453125 11.101562 -16.382812 11.21875 -16.3125 C 11.34375 -16.238281 11.457031 -16.164062 11.5625 -16.09375 C 11.675781 -16.03125 11.789062 -15.957031 11.90625 -15.875 C 12.519531 -15.363281 12.992188 -14.753906 13.328125 -14.046875 C 13.648438 -13.328125 13.8125 -12.566406 13.8125 -11.765625 C 13.8125 -10.785156 13.617188 -9.910156 13.234375 -9.140625 C 12.859375 -8.367188 12.328125 -7.710938 11.640625 -7.171875 C 11.304688 -6.921875 10.9375 -6.695312 10.53125 -6.5 C 10.132812 -6.300781 9.707031 -6.128906 9.25 -5.984375 C 8.34375 -5.734375 7.34375 -5.609375 6.25 -5.609375 C 6.101562 -5.609375 5.953125 -5.609375 5.796875 -5.609375 C 5.648438 -5.609375 5.507812 -5.609375 5.375 -5.609375 C 5.25 -5.617188 5.117188 -5.625 4.984375 -5.625 L 4.984375 0.59375 L 1.546875 0.59375 L 1.546875 -17.109375 Z M 6.53125 -8.671875 C 7.8125 -8.671875 8.785156 -8.941406 9.453125 -9.484375 C 10.078125 -9.992188 10.390625 -10.691406 10.390625 -11.578125 C 10.390625 -12.410156 10.09375 -13.070312 9.5 -13.5625 C 8.875 -14.070312 7.929688 -14.328125 6.671875 -14.328125 C 6.535156 -14.328125 6.398438 -14.328125 6.265625 -14.328125 C 6.128906 -14.328125 6 -14.320312 5.875 -14.3125 C 5.75 -14.3125 5.617188 -14.3125 5.484375 -14.3125 C 5.328125 -14.3125 5.160156 -14.300781 4.984375 -14.28125 L 4.984375 -8.75 L 5.34375 -8.703125 C 5.457031 -8.703125 5.578125 -8.695312 5.703125 -8.6875 C 5.828125 -8.675781 5.960938 -8.671875 6.109375 -8.671875 C 6.253906 -8.671875 6.394531 -8.671875 6.53125 -8.671875 Z M 6.53125 -8.671875 "/></g></g></g><g fill="#0478fd" fill-opacity="1"><g transform="translate(79.907984, 37.020138)"><g><path d="M 2.140625 -17.234375 L 12.71875 -17.234375 L 12.71875 -14.09375 L 4.984375 -14.09375 L 4.984375 -10.21875 L 11.640625 -10.21875 L 11.640625 -7.125 L 4.984375 -7.125 L 4.984375 -2.546875 L 12.71875 -2.546875 L 12.71875 0.59375 L 1.546875 0.59375 L 1.546875 -17.234375 Z M 2.140625 -17.234375 "/></g></g></g><g fill="#0478fd" fill-opacity="1"><g transform="translate(95.496881, 37.020138)"><g><path d="M -0.28125 -0.8125 L 6.234375 -16.84375 L 6.375 -17.234375 L 9.65625 -17.234375 L 9.796875 -16.84375 L 16.21875 -0.8125 L 16.421875 -0.265625 L 15.890625 -0.046875 L 13.8125 0.78125 L 13.265625 1.015625 L 13.0625 0.453125 L 11.34375 -3.921875 L 4.453125 -3.921875 L 2.734375 0.40625 L 2.53125 0.96875 L 1.984375 0.734375 L 0.0625 -0.046875 L -0.515625 -0.265625 Z M 5.640625 -7.015625 L 10.125 -7.015625 L 7.890625 -12.765625 Z M 5.640625 -7.015625 "/></g></g></g><g fill="#0478fd" fill-opacity="1"><g transform="translate(113.770943, 37.020138)"><g><path d="M 14.46875 -0.921875 L 12.90625 0.6875 L 12.484375 1.109375 L 12.046875 0.71875 L 4.984375 -6.234375 L 4.984375 0.59375 L 1.546875 0.59375 L 1.546875 -17.234375 L 4.984375 -17.234375 L 4.984375 -10.578125 L 11.046875 -17.109375 L 11.453125 -17.53125 L 11.875 -17.140625 L 13.40625 -15.734375 L 13.859375 -15.328125 L 13.421875 -14.90625 L 7.34375 -8.578125 L 14.453125 -1.765625 L 14.875 -1.359375 Z M 14.46875 -0.921875 "/></g></g></g><g fill="#0478fd" fill-opacity="1"><g transform="translate(130.452918, 37.020138)"><g><path d="M 4.046875 0.59375 L 1.3125 0.59375 L 1.3125 -12.953125 L 4.640625 -12.953125 L 4.640625 0.59375 Z M 2.96875 -13.875 C 2.394531 -13.875 1.898438 -14.078125 1.484375 -14.484375 C 1.078125 -14.898438 0.875 -15.394531 0.875 -15.96875 C 0.875 -16.582031 1.066406 -17.082031 1.453125 -17.46875 C 1.847656 -17.863281 2.351562 -18.0625 2.96875 -18.0625 C 3.257812 -18.0625 3.53125 -18.007812 3.78125 -17.90625 C 4.03125 -17.800781 4.253906 -17.648438 4.453125 -17.453125 C 4.648438 -17.253906 4.800781 -17.023438 4.90625 -16.765625 C 5.007812 -16.515625 5.0625 -16.25 5.0625 -15.96875 C 5.0625 -15.351562 4.863281 -14.847656 4.46875 -14.453125 C 4.082031 -14.066406 3.582031 -13.875 2.96875 -13.875 Z M 2.96875 -13.875 "/></g></g></g><g fill="#0478fd" fill-opacity="1"><g transform="translate(138.794256, 37.020138)"><g><path d="M 0.234375 -17.234375 L 13.3125 -17.234375 L 13.3125 -14.046875 L 8.203125 -14.046875 L 8.203125 0.59375 L 4.75 0.59375 L 4.75 -14.046875 L -0.359375 -14.046875 L -0.359375 -17.234375 Z M 0.234375 -17.234375 "/></g></g></g></svg>